<svg width="33" height="32" viewBox="0 0 33 32" fill="none" xmlns="http://www.w3.org/2000/svg">
<g id="carbon:search">
<path id="Vector" d="M29.5001 27.586L21.9481 20.034C23.7629 17.8553 24.6679 15.0608 24.4748 12.2319C24.2817 9.40297 23.0054 6.75739 20.9114 4.84552C18.8173 2.93364 16.0669 1.90268 13.2321 1.96709C10.3973 2.0315 7.69647 3.18633 5.69146 5.19134C3.68644 7.19635 2.53161 9.89718 2.4672 12.732C2.40279 15.5667 3.43376 18.3172 5.34563 20.4112C7.25751 22.5053 9.90309 23.7816 12.732 23.9747C15.561 24.1678 18.3554 23.2628 20.5341 21.448L28.0861 29L29.5001 27.586ZM4.50012 13C4.50012 11.22 5.02796 9.47991 6.01689 7.99987C7.00582 6.51983 8.41143 5.36627 10.056 4.68509C11.7005 4.0039 13.5101 3.82567 15.2559 4.17293C17.0018 4.5202 18.6054 5.37737 19.8641 6.63604C21.1228 7.89471 21.9799 9.49836 22.3272 11.2442C22.6745 12.99 22.4962 14.7996 21.815 16.4442C21.1338 18.0887 19.9803 19.4943 18.5002 20.4832C17.0202 21.4722 15.2801 22 13.5001 22C11.114 21.9974 8.82633 21.0483 7.13908 19.361C5.45182 17.6738 4.50276 15.3861 4.50012 13Z" fill="#333333"/>
</g>
</svg>
